<svg width="83" height="87" viewBox="0 0 83 87" fill="none" xmlns="http://www.w3.org/2000/svg">
    <path d="M82.4 42.5L76.5 6C76 2.9 73.3 0.599998 70.2 0.599998H68.7L69.5 11C69.6 12.3 69.2 13.6 68.3 14.6C67.4 15.6 66.3 16.2 65 16.3C64.9 16.3 64.7 16.3 64.6 16.3C62.1 16.3 59.9 14.3 59.7 11.8L58.8 0.599998H30.7L29.8 11.8C29.6 14.3 27.4 16.3 24.9 16.3C24.8 16.3 24.6 16.3 24.5 16.3C21.8 16.1 19.8 13.7 20 11L20.9 0.599998H17.9C14.7 0.599998 12 2.9 11.5 6.1L0.5 79.3C0.5 79.4 0.5 79.4 0.5 79.5C56.9 90.4 72.6 43.7 72.6 43.7C72.1 63.7 63.4 77.2 52.8 86.4C72.2 82 85.7 63.1 82.4 42.5Z" fill="white"/>
</svg>
